<?xml version="1.0" ?><svg id="Layer_1" style="enable-background:new 0 0 64 64;" version="1.1" viewBox="0 0 64 64" xml:space="preserve" xmlns="http://www.w3.org/2000/svg" xmlns:xlink="http://www.w3.org/1999/xlink"><g fill="#00000055"><path d="M62.11502,52.97377l-14.32007-14.31l-2.11353,2.11127l-3.14197-3.14197   C54.27425,21.72432,42.59137,0.00569,23.59134,0.00569c-13.03654,0-23.58887,10.54978-23.58887,23.58838   c0,13.30559,10.89729,23.63579,23.57715,23.63477c4.85059-0.00049,9.72852-1.51172,13.92676-4.58838   c0.04199-0.03052,0.08167-0.06677,0.12354-0.09766l3.13916,3.13922l-2.11401,2.11176l14.31995,14.32001   c2.51656,2.51656,6.64184,2.49817,9.14001,0C64.62503,59.59376,64.62503,55.49379,62.11502,52.97377z M2.00247,23.59407   c0-11.93155,9.65568-21.58838,21.58887-21.58838c19.72736,0,29.5486,24.82983,13.95361,38.05719v-6.41913   c0-4.10999-3.32996-7.43994-7.44995-7.43994h-2.40991l-4.04004,7.70996c-0.02002,0.04999-0.1001,0.04999-0.11011,0   l-4.03992-7.70996h-2.42004c-4.10999,0-7.43994,3.32996-7.43994,7.43994v6.41327   C4.65646,35.8153,2.00247,29.86305,2.00247,23.59407z"/><path d="M23.59097,23.51265c3.99072,0,7.22595-6.04822,7.22595-10.039c0-3.99072-3.23523-7.22583-7.22595-7.22583   s-7.22583,3.23511-7.22583,7.22583C16.36514,17.46443,19.60025,23.51265,23.59097,23.51265z"/></g></svg>