<?xml version="1.0" standalone="no"?>
<!DOCTYPE svg PUBLIC "-//W3C//DTD SVG 20010904//EN"
 "http://www.w3.org/TR/2001/REC-SVG-20010904/DTD/svg10.dtd">
<svg version="1.0" xmlns="http://www.w3.org/2000/svg"
 width="100.000000pt" height="100.000000pt" viewBox="0 0 100.000000 100.000000"
 preserveAspectRatio="xMidYMid meet">

<g transform="translate(0.000000,100.000000) scale(0.100000,-0.100000)"
fill="#004b91c4" stroke="none">
<path d="M670 819 c-80 -4 -247 -11 -371 -15 l-226 -6 -7 -106 c-9 -156 -7
-535 3 -551 8 -13 40 -11 233 12 250 31 452 47 577 47 l84 0 -6 113 c-6 116
-33 388 -45 467 l-7 45 -45 1 c-25 1 -110 -2 -190 -7z m190 -34 c0 -27 -307
-345 -333 -345 -10 0 -35 12 -55 27 -75 56 -249 203 -297 252 l-49 51 234 1
c196 1 329 6 478 17 12 1 22 0 22 -3z m33 -197 c9 -95 20 -209 23 -253 l7 -80
-24 21 c-31 28 -208 144 -220 144 -23 0 -2 -19 74 -67 45 -28 99 -65 119 -81
l37 -29 -132 -7 c-197 -10 -537 -44 -617 -62 -18 -4 3 21 78 91 56 53 102 101
102 107 0 13 -37 -17 -137 -112 -46 -44 -88 -80 -93 -80 -11 0 -12 419 -1 511
l6 57 90 -85 c130 -123 291 -243 325 -243 22 0 51 24 146 123 66 68 135 144
154 170 19 25 38 47 41 47 3 0 13 -78 22 -172z"/>
</g>
</svg>
