<?xml version="1.0" standalone="no"?>
<!DOCTYPE svg PUBLIC "-//W3C//DTD SVG 20010904//EN"
 "http://www.w3.org/TR/2001/REC-SVG-20010904/DTD/svg10.dtd">
<svg version="1.0" xmlns="http://www.w3.org/2000/svg"
 width="96.000000pt" height="96.000000pt" viewBox="0 0 96.000000 96.000000"
 preserveAspectRatio="xMidYMid meet">

<g transform="translate(0.000000,96.000000) scale(0.100000,-0.100000)"
fill="#004b91c4" stroke="none">
<path d="M466 736 c-253 -99 -461 -186 -463 -193 -3 -7 49 -39 127 -78 l132
-66 112 64 c222 129 215 129 73 2 l-88 -78 3 -150 c2 -105 7 -152 15 -154 6
-2 37 30 69 71 31 42 59 76 61 76 3 0 66 -34 140 -76 84 -49 138 -73 144 -67
12 12 171 804 164 821 -2 6 -10 12 -17 11 -7 -1 -220 -83 -472 -183z m441 102
c-3 -13 -36 -175 -73 -360 -37 -186 -71 -338 -76 -338 -4 0 -65 32 -134 72
l-127 72 -21 -25 c-11 -14 -33 -41 -48 -60 l-27 -34 0 105 1 105 179 158 c165
145 191 175 163 184 -5 2 -116 -59 -247 -135 l-237 -138 -87 44 c-49 24 -87
47 -86 50 1 8 791 320 812 321 9 1 11 -6 8 -21z"/>
</g>
</svg>
